<svg width="27" height="27" viewBox="0 0 27 27" fill="none" xmlns="http://www.w3.org/2000/svg">
<g clip-path="url(#clip0_1996_858)">
<path d="M22.6035 25.9268V3.49023C22.6035 2.00098 21.5903 1 20.0522 1H6.55127C5.02539 1 4 2.00098 4 3.49023V25.9268C4 26.4639 4.43945 26.9033 4.97656 26.9033C5.52588 26.9033 5.96533 26.4639 5.96533 25.9268V3.6123C5.96533 3.22168 6.22168 2.96533 6.58789 2.96533H20.0156C20.3818 2.96533 20.6382 3.22168 20.6382 3.6123V25.9268C20.6382 26.4639 21.0776 26.9033 21.627 26.9033C22.1641 26.9033 22.6035 26.4639 22.6035 25.9268Z" fill="black"/>
<path d="M19.21 26.2075V4.64992C19.21 4.40578 19.0146 4.28371 18.7827 4.38137L14.9375 6.09035C14.6445 6.21242 14.5225 6.32229 14.5225 6.62746V24.2178C14.5225 24.5352 14.6445 24.6328 14.9497 24.7671L18.7827 26.4639C19.0146 26.5615 19.21 26.4395 19.21 26.2075Z" fill="black"/>
</g>
<defs>
<clipPath id="clip0_1996_858">
<rect width="18.9575" height="25.9155" fill="white" transform="translate(4 1)"/>
</clipPath>
</defs>
</svg>
