<svg width="27" height="27" viewBox="0 0 27 27" fill="none" xmlns="http://www.w3.org/2000/svg">
<g clip-path="url(#clip0_2043_74)">
<g clip-path="url(#clip1_2043_74)">
<path d="M13.4507 26.9013C20.809 26.9013 26.9013 20.7958 26.9013 13.4507C26.9013 6.09237 20.7958 0 13.4375 0C6.09237 0 0 6.09237 0 13.4507C0 20.7958 6.10556 26.9013 13.4507 26.9013ZM13.4507 24.6595C7.22644 24.6595 2.25496 19.6749 2.25496 13.4507C2.25496 7.22644 7.21326 2.24179 13.4375 2.24179C19.6617 2.24179 24.6595 7.22644 24.6595 13.4507C24.6595 19.6749 19.6749 24.6595 13.4507 24.6595Z" fill="black"/>
<path d="M13.9253 20.9408C13.9782 20.9277 14.0177 20.9012 14.0572 20.8748L19.4639 17.8023C20.0836 17.4331 20.4529 17.0639 20.4529 16.0749V10.6946C20.4529 10.5099 20.4397 10.3253 20.387 10.1803L13.9253 13.8726V20.9408ZM12.9759 20.9408V13.8726L6.51429 10.1803C6.47473 10.3253 6.47473 10.5099 6.47473 10.6946V16.0749C6.47473 17.0639 6.8176 17.4331 7.43739 17.8023L12.844 20.8748C12.8836 20.9012 12.9232 20.9277 12.9759 20.9408ZM13.4507 13.0551L16.3913 11.3803L9.87697 7.66157L7.34508 9.11213C7.18683 9.17806 7.05496 9.27037 6.96265 9.37587L13.4507 13.0551ZM17.354 10.8396L19.9386 9.37587C19.8463 9.27037 19.7144 9.17806 19.5562 9.11213L14.7033 6.32969C14.2814 6.07913 13.8594 5.96045 13.4507 5.96045C13.0551 5.96045 12.633 6.07913 12.211 6.32969L10.8001 7.1209L17.354 10.8396Z" fill="black"/>
</g>
</g>
<defs>
<clipPath id="clip0_2043_74">
<rect width="27" height="27" fill="white"/>
</clipPath>
<clipPath id="clip1_2043_74">
<rect width="27.2837" height="26.9146" fill="white"/>
</clipPath>
</defs>
</svg>
