<svg width="27" height="27" viewBox="0 0 27 27" fill="none" xmlns="http://www.w3.org/2000/svg">
<g clip-path="url(#clip0_2037_44)">
<g clip-path="url(#clip1_2037_44)">
<path d="M2.78934 23.0487C2.78934 25.1383 4.01559 26.2269 6.10524 26.2269H11.9863V14.9904H2.78934V23.0487ZM14.0384 26.2269H19.9319C22.0091 26.2269 23.2478 25.1383 23.2478 23.0487V14.9904H14.0384V26.2269ZM1 11.7871C1 13.126 1.75077 13.6515 3.10216 13.6515H11.9863V6.88207H10.0343C8.06975 6.88207 6.91858 5.64329 6.91858 4.26688C6.91858 2.89046 7.9196 2.08964 9.29601 2.08964C10.785 2.08964 11.9863 3.2158 11.9863 5.0677V6.88207H14.0384V5.0677C14.0384 3.2158 15.2396 2.08964 16.7286 2.08964C18.105 2.08964 19.1061 2.89046 19.1061 4.26688C19.1061 5.64329 17.9674 6.88207 15.9904 6.88207H14.0384V13.6515H22.935C24.2864 13.6515 25.0372 13.126 25.0372 11.7871V8.74647C25.0372 7.4076 24.2864 6.88207 22.935 6.88207H20.032C20.7578 6.19386 21.1957 5.25539 21.1957 4.15426C21.1957 1.72677 19.2813 0 16.8538 0C15.1019 0 13.6505 0.963488 13.0124 2.64021C12.3742 0.963488 10.9352 0 9.17088 0C6.7559 0 4.82893 1.72677 4.82893 4.15426C4.82893 5.25539 5.26688 6.19386 6.00513 6.88207H3.10216C1.81333 6.88207 1 7.4076 1 8.74647V11.7871Z" fill="black"/>
</g>
</g>
<defs>
<clipPath id="clip0_2037_44">
<rect width="27" height="27" fill="white"/>
</clipPath>
<clipPath id="clip1_2037_44">
<rect width="24.4" height="27.6408" fill="white" transform="translate(1)"/>
</clipPath>
</defs>
</svg>
