<svg width="27" height="27" viewBox="0 0 27 27" fill="none" xmlns="http://www.w3.org/2000/svg">
<g clip-path="url(#clip0_2209_1332)">
<path d="M3.84326 21.8008H23.1914C24.3389 21.8008 25.0347 21.2148 25.0347 20.3237C25.0347 19.103 23.7896 18.0044 22.7397 16.918C21.9341 16.0757 21.7144 14.3423 21.6167 12.9385C21.5312 8.25098 20.2861 5.02832 17.0391 3.85645C16.5752 2.25732 15.3179 1 13.5112 1C11.7168 1 10.4473 2.25732 9.99561 3.85645C6.74854 5.02832 5.50342 8.25098 5.41797 12.9385C5.32031 14.3423 5.10059 16.0757 4.29492 16.918C3.23291 18.0044 2 19.103 2 20.3237C2 21.2148 2.68359 21.8008 3.84326 21.8008ZM13.5112 26.6958C15.5864 26.6958 17.1001 25.1821 17.2588 23.4731H9.77588C9.93457 25.1821 11.4482 26.6958 13.5112 26.6958Z" fill="black" fill-opacity="0.85"/>
</g>
<defs>
<clipPath id="clip0_2209_1332">
<rect width="23.3887" height="25.6958" fill="white" transform="translate(2 1)"/>
</clipPath>
</defs>
</svg>
