<svg width="27" height="27" viewBox="0 0 27 27" fill="none" xmlns="http://www.w3.org/2000/svg">
<g clip-path="url(#clip0_2567_57)">
<path d="M1 5.2554C1 5.6835 1.35501 6.04894 1.77266 6.04894H5.30186L6.97247 17.5136C7.19175 18.9963 7.97485 19.9256 9.48886 19.9256H21.6739C22.0812 19.9256 22.4361 19.5915 22.4361 19.1425C22.4361 18.6935 22.0812 18.3593 21.6739 18.3593H9.66632C9.0712 18.3593 8.70575 17.9417 8.61178 17.3047L8.44471 16.2084H21.6948C23.2193 16.2084 24.0024 15.2687 24.2216 13.7756L25.057 8.25208C25.0778 8.11634 25.0987 7.94927 25.0987 7.8553C25.0987 7.35411 24.7229 7.00955 24.1486 7.00955H7.10821L6.89938 5.6835C6.79497 4.87951 6.50262 4.47229 5.43759 4.47229H1.77266C1.35501 4.47229 1 4.83774 1 5.2554ZM8.61178 23.3086C8.61178 24.2587 9.36355 25.0001 10.3137 25.0001C11.2534 25.0001 12.0052 24.2587 12.0052 23.3086C12.0052 22.3688 11.2534 21.617 10.3137 21.617C9.36355 21.617 8.61178 22.3688 8.61178 23.3086ZM18.3745 23.3086C18.3745 24.2587 19.1367 25.0001 20.0764 25.0001C21.0266 25.0001 21.7784 24.2587 21.7784 23.3086C21.7784 22.3688 21.0266 21.617 20.0764 21.617C19.1367 21.617 18.3745 22.3688 18.3745 23.3086Z" fill="white"/>
</g>
<defs>
<clipPath id="clip0_2567_57">
<rect width="24.9341" height="22" fill="white" transform="translate(1 3)"/>
</clipPath>
</defs>
</svg>
