<svg width="27" height="27" viewBox="0 0 27 27" fill="none" xmlns="http://www.w3.org/2000/svg">
<g clip-path="url(#clip0_2037_44)">
<path d="M4.23331 22.0392C4.23331 23.9466 5.35265 24.9403 7.26011 24.9403H12.6284V14.6834H4.23331V22.0392ZM14.5016 24.9403H19.8813C21.7773 24.9403 22.9081 23.9466 22.9081 22.0392V14.6834H14.5016V24.9403ZM2.59998 11.7594C2.59998 12.9816 3.28529 13.4613 4.51885 13.4613H12.6284V7.28205H10.8466C9.05334 7.28205 8.00254 6.15127 8.00254 4.89487C8.00254 3.63845 8.91629 2.90745 10.1727 2.90745C11.5319 2.90745 12.6284 3.93543 12.6284 5.62587V7.28205H14.5016V5.62587C14.5016 3.93543 15.5981 2.90745 16.9573 2.90745C18.2137 2.90745 19.1275 3.63845 19.1275 4.89487C19.1275 6.15127 18.088 7.28205 16.2834 7.28205H14.5016V13.4613H22.6225C23.8561 13.4613 24.5414 12.9816 24.5414 11.7594V8.9839C24.5414 7.76176 23.8561 7.28205 22.6225 7.28205H19.9727C20.6351 6.65384 21.0349 5.79719 21.0349 4.79207C21.0349 2.57622 19.2874 1 17.0715 1C15.4724 1 14.1475 1.87949 13.565 3.41002C12.9825 1.87949 11.669 1 10.0585 1C7.85404 1 6.09507 2.57622 6.09507 4.79207C6.09507 5.79719 6.49484 6.65384 7.16873 7.28205H4.51885C3.3424 7.28205 2.59998 7.76176 2.59998 8.9839V11.7594Z" fill="black"/>
</g>
<defs>
<clipPath id="clip0_2037_44">
<rect width="22.2727" height="25.2309" fill="white" transform="translate(2.59998 1)"/>
</clipPath>
</defs>
</svg>
