<svg width="27" height="27" viewBox="0 0 27 27" fill="none" xmlns="http://www.w3.org/2000/svg">
<g clip-path="url(#clip0_1996_862)">
<path d="M9.19195 25.8432H17.8876C19.8005 25.8432 21.0796 24.6228 21.0796 22.7921V4.05113C21.0796 2.22045 19.8005 1 17.8876 1H9.19195C7.27913 1 6 2.22045 6 4.05113V22.7921C6 24.6228 7.27913 25.8432 9.19195 25.8432ZM9.43839 23.9539C8.4409 23.9539 7.88935 23.4258 7.88935 22.487V4.35624C7.88935 3.41743 8.4409 2.88935 9.43839 2.88935H17.653C18.6387 2.88935 19.1903 3.41743 19.1903 4.35624V22.487C19.1903 23.4258 18.6387 23.9539 17.653 23.9539H9.43839ZM11.0578 23.0972H16.0452C16.3621 23.0972 16.585 22.8742 16.585 22.5457C16.585 22.2171 16.3621 22.0059 16.0452 22.0059H11.0578C10.741 22.0059 10.5063 22.2171 10.5063 22.5457C10.5063 22.8742 10.741 23.0972 11.0578 23.0972ZM12.1257 5.37719H14.9656C15.4233 5.37719 15.7871 5.0134 15.7871 4.544C15.7871 4.08634 15.4233 3.72254 14.9656 3.72254H12.1257C11.6563 3.72254 11.2925 4.08634 11.2925 4.544C11.2925 5.0134 11.6563 5.37719 12.1257 5.37719Z" fill="black"/>
</g>
<defs>
<clipPath id="clip0_1996_862">
<rect width="15.4199" height="24.8667" fill="white" transform="translate(6 1)"/>
</clipPath>
</defs>
</svg>
