<svg width="27" height="27" viewBox="0 0 27 27" fill="none" xmlns="http://www.w3.org/2000/svg">
<g clip-path="url(#clip0_2064_85)">
<path d="M4.1862 23.3505H22.7352C24.8457 23.3505 25.9213 22.2953 25.9213 20.2049V9.58092C25.9213 7.49061 24.8457 6.44545 22.7352 6.44545H19.833C19.0314 6.44545 18.7879 6.2831 18.3313 5.77574L17.5195 4.86251C17.0122 4.30441 16.4946 4 15.4495 4H11.4008C10.3557 4 9.83812 4.30441 9.3308 4.86251L8.51901 5.77574C8.06239 6.27296 7.80872 6.44545 7.01724 6.44545H4.1862C2.06545 6.44545 1 7.49061 1 9.58092V20.2049C1 22.2953 2.06545 23.3505 4.1862 23.3505ZM13.4606 20.3571C10.3861 20.3571 7.92034 17.9015 7.92034 14.8067C7.92034 11.722 10.3861 9.26635 13.4606 9.26635C16.5353 9.26635 18.9909 11.722 18.9909 14.8067C18.9909 17.9015 16.5251 20.3571 13.4606 20.3571ZM13.4606 18.8148C15.6728 18.8148 17.4586 17.039 17.4586 14.8067C17.4586 12.5844 15.6728 10.7986 13.4606 10.7986C11.2486 10.7986 9.45258 12.5844 9.45258 14.8067C9.45258 17.039 11.2587 18.8148 13.4606 18.8148ZM19.6707 11.0725C19.6707 10.3825 20.2796 9.77371 20.9899 9.77371C21.6899 9.77371 22.2887 10.3825 22.2887 11.0725C22.2887 11.793 21.6899 12.3714 20.9899 12.3815C20.2796 12.3815 19.6707 11.8031 19.6707 11.0725Z" fill="black"/>
</g>
<defs>
<clipPath id="clip0_2064_85">
<rect width="25.2156" height="20" fill="white" transform="translate(1 4)"/>
</clipPath>
</defs>
</svg>
