<svg width="28" height="27" viewBox="0 0 28 27" fill="none" xmlns="http://www.w3.org/2000/svg">
<g clip-path="url(#clip0_1996_807)">
<path d="M0 11.9019V22.8027C0 23.6938 0.646973 24.2676 1.50146 24.2676C2.35596 24.2554 3.00293 23.6938 3.00293 22.8027V9.60693H2.40479C0.915527 9.60693 0 10.4492 0 11.9019ZM4.12598 26.1719H23.4375C26.001 26.1719 27.2705 24.9146 27.2705 22.3999V3.78418C27.2705 1.26953 26.001 0 23.4375 0H9.21631C6.66504 0 5.3833 1.26953 5.3833 3.78418V23.6084C5.3833 24.9146 5.07812 25.647 4.12598 26.1719ZM10.2783 7.27539C9.83887 7.27539 9.50928 6.93359 9.50928 6.50635C9.50928 6.09131 9.83887 5.77393 10.2783 5.77393H22.3999C22.8271 5.77393 23.1567 6.09131 23.1567 6.50635C23.1567 6.93359 22.8271 7.27539 22.3999 7.27539H10.2783ZM10.2783 11.5723C9.83887 11.5723 9.50928 11.2427 9.50928 10.8276C9.50928 10.4004 9.83887 10.0708 10.2783 10.0708H22.3999C22.8271 10.0708 23.1567 10.4004 23.1567 10.8276C23.1567 11.2427 22.8271 11.5723 22.3999 11.5723H10.2783ZM17.8467 15.8813C17.4072 15.8813 17.0898 15.564 17.0898 15.1489C17.0898 14.7095 17.4072 14.3799 17.8467 14.3799H22.3999C22.8271 14.3799 23.1445 14.7095 23.1445 15.1489C23.1445 15.564 22.8271 15.8813 22.3999 15.8813H17.8467ZM17.8467 20.2759C17.4072 20.2759 17.0898 19.9585 17.0898 19.5435C17.0898 19.1162 17.4072 18.7744 17.8467 18.7744H22.3999C22.8271 18.7744 23.1445 19.1162 23.1445 19.5435C23.1445 19.9585 22.8271 20.2759 22.3999 20.2759H17.8467ZM10.9375 20.3369C10.0342 20.3369 9.49707 19.7998 9.49707 18.9087V15.8203C9.49707 14.917 10.0342 14.3799 10.9375 14.3799H13.9893C14.8804 14.3799 15.4175 14.917 15.4175 15.8203V18.9087C15.4175 19.7998 14.8804 20.3369 13.9893 20.3369H10.9375Z" fill="black"/>
</g>
<defs>
<clipPath id="clip0_1996_807">
<rect width="27.6245" height="26.1841" fill="white"/>
</clipPath>
</defs>
</svg>
