<svg width="27" height="27" viewBox="0 0 27 27" fill="none" xmlns="http://www.w3.org/2000/svg">
<g clip-path="url(#clip0_1996_827)">
<g clip-path="url(#clip1_1996_827)">
<path d="M16.2156 23.6721H10.4491V16.285C10.4491 15.771 10.7955 15.4357 11.3096 15.4357H15.3663C15.8804 15.4357 16.2156 15.771 16.2156 16.285V23.6721ZM3.48675 23.0016C3.48675 24.5549 4.42549 25.4713 6.00124 25.4713H20.697C22.2727 25.4713 23.2003 24.5549 23.2003 23.0016V14.1506L14.0141 6.45064C13.5894 6.09303 13.0865 6.1042 12.673 6.45064L3.48675 14.1506V23.0016ZM0 13.033C0 13.4912 0.357616 13.9271 0.961088 13.9271C1.274 13.9271 1.53104 13.7594 1.76573 13.5694L12.9523 4.18201C13.1983 3.9585 13.5 3.9585 13.7458 4.18201L24.9325 13.5694C25.156 13.7594 25.4131 13.9271 25.726 13.9271C26.2512 13.9271 26.6759 13.603 26.6759 13.0665C26.6759 12.7313 26.5641 12.5078 26.3295 12.3066L14.6957 2.52804C13.8688 1.82399 12.8407 1.82399 12.0025 2.52804L0.357616 12.3066C0.111755 12.5078 0 12.7759 0 13.033ZM20.3952 7.99286L23.2003 10.3621V5.19898C23.2003 4.70726 22.8874 4.39435 22.3957 4.39435H21.1999C20.7193 4.39435 20.3952 4.70726 20.3952 5.19898V7.99286Z" fill="black"/>
</g>
</g>
<defs>
<clipPath id="clip0_1996_827">
<rect width="27" height="27" fill="white"/>
</clipPath>
<clipPath id="clip1_1996_827">
<rect width="27" height="25.3628" fill="white" transform="translate(0 2)"/>
</clipPath>
</defs>
</svg>
