<svg width="27" height="27" viewBox="0 0 27 27" fill="none" xmlns="http://www.w3.org/2000/svg">
<g clip-path="url(#clip0_2041_62)">
<g clip-path="url(#clip1_2041_62)">
<path d="M10.0933 23.4741C9.61719 23.4741 9.31201 23.1934 9.2876 22.7295L8.92139 9.28955C8.90918 8.83789 9.21436 8.54492 9.70264 8.54492C10.1543 8.54492 10.4717 8.82568 10.4839 9.27734L10.8745 22.7295C10.8867 23.1812 10.5693 23.4741 10.0933 23.4741ZM13.8164 23.4741C13.3403 23.4741 13.0107 23.1812 13.0107 22.7295V9.28955C13.0107 8.83789 13.3403 8.54492 13.8164 8.54492C14.2925 8.54492 14.6343 8.83789 14.6343 9.28955V22.7295C14.6343 23.1812 14.2925 23.4741 13.8164 23.4741ZM17.5518 23.4741C17.0757 23.4741 16.7583 23.1812 16.7705 22.7295L17.1489 9.28955C17.1611 8.82568 17.4785 8.54492 17.9302 8.54492C18.4185 8.54492 18.7236 8.83789 18.7114 9.28955L18.3452 22.7295C18.3208 23.1934 18.0156 23.4741 17.5518 23.4741ZM8.45752 5.57861H10.3984V2.96631C10.3984 2.27051 10.8867 1.81885 11.6191 1.81885H15.9893C16.7217 1.81885 17.21 2.27051 17.21 2.96631V5.57861H19.1509V2.84424C19.1509 1.07422 18.0034 0 16.1235 0H11.4849C9.60498 0 8.45752 1.07422 8.45752 2.84424V5.57861ZM2.91553 6.55518H24.7295C25.23 6.55518 25.6328 6.12793 25.6328 5.62744C25.6328 5.12695 25.23 4.71191 24.7295 4.71191H2.91553C2.42725 4.71191 2 5.12695 2 5.62744C2 6.14014 2.42725 6.55518 2.91553 6.55518ZM8.22559 27.1851H19.4194C21.165 27.1851 22.3369 26.0498 22.4224 24.3042L23.2769 6.29883H4.35596L5.22266 24.3164C5.30811 26.062 6.45557 27.1851 8.22559 27.1851Z" fill="#FF3B30"/>
</g>
</g>
<defs>
<clipPath id="clip0_2041_62">
<rect width="27" height="27" fill="white"/>
</clipPath>
<clipPath id="clip1_2041_62">
<rect width="23.9868" height="29.3579" fill="white" transform="translate(2)"/>
</clipPath>
</defs>
</svg>
