<svg width="27" height="27" viewBox="0 0 27 27" fill="none" xmlns="http://www.w3.org/2000/svg">
<g clip-path="url(#clip0_2040_61)">
<path d="M6.83301 25.5605H21.2007C23.3857 25.5605 24.6675 24.291 24.6675 21.7764V9.14209C24.6675 6.62744 23.3735 5.35791 20.8345 5.35791H6.83301C4.28174 5.35791 3 6.61523 3 9.14209V21.7764C3 24.3032 4.28174 25.5605 6.83301 25.5605ZM9.01807 5.83398L10.9834 5.84619C10.9834 4.10059 12.1309 2.85547 13.8276 2.85547C15.5244 2.85547 16.6841 4.10059 16.6841 5.84619L18.6494 5.83398C18.6494 3.13623 16.562 1 13.8276 1C11.0933 1 9.01807 3.13623 9.01807 5.83398Z" fill="black" fill-opacity="0.85"/>
</g>
<defs>
<clipPath id="clip0_2040_61">
<rect width="22.0215" height="24.5728" fill="white" transform="translate(3 1)"/>
</clipPath>
</defs>
</svg>
