<svg width="27" height="27" viewBox="0 0 27 27" fill="none" xmlns="http://www.w3.org/2000/svg">
<g clip-path="url(#clip0_2064_86)">
<path d="M2 20.3237C2 21.2148 2.68359 21.8008 3.84326 21.8008H8.99463C9.09229 24.1567 10.9355 26.2197 13.5112 26.2197C16.0991 26.2197 17.9424 24.1689 18.04 21.8008H23.1914C24.3389 21.8008 25.0347 21.2148 25.0347 20.3237C25.0347 19.103 23.7896 18.0044 22.7397 16.918C21.9341 16.0757 21.7144 14.3423 21.6167 12.9385C21.5312 8.12891 20.2861 5.02832 17.0391 3.85645C16.624 2.25732 15.3179 1 13.5112 1C11.7168 1 10.3984 2.25732 9.99561 3.85645C6.74854 5.02832 5.50342 8.12891 5.41797 12.9385C5.32031 14.3423 5.10059 16.0757 4.29492 16.918C3.23291 18.0044 2 19.103 2 20.3237ZM4.36816 19.9575V19.811C4.58789 19.457 5.32031 18.7368 5.95508 18.0288C6.83398 17.0522 7.24902 15.4775 7.35889 13.0972C7.45654 7.7627 9.04346 6.06592 11.1309 5.49219C11.436 5.41895 11.6069 5.27246 11.6191 4.95508C11.6558 3.68555 12.3882 2.79443 13.5112 2.79443C14.6465 2.79443 15.3667 3.68555 15.4155 4.95508C15.4277 5.27246 15.5864 5.41895 15.8916 5.49219C17.9912 6.06592 19.5781 7.7627 19.6758 13.0972C19.7856 15.4775 20.2007 17.0522 21.0674 18.0288C21.7144 18.7368 22.4346 19.457 22.6543 19.811V19.9575H4.36816ZM10.8989 21.8008H16.1357C16.0381 23.4609 14.9883 24.4985 13.5112 24.4985C12.0464 24.4985 10.9844 23.4609 10.8989 21.8008Z" fill="black" fill-opacity="0.85"/>
</g>
<defs>
<clipPath id="clip0_2064_86">
<rect width="23.3887" height="25.2319" fill="white" transform="translate(2 1)"/>
</clipPath>
</defs>
</svg>
