<svg width="27" height="27" viewBox="0 0 27 27" fill="none" xmlns="http://www.w3.org/2000/svg">
<g clip-path="url(#clip0_2040_58)">
<path d="M4.8823 24.787H21.7715C24.3556 24.787 25.6414 23.501 25.6414 20.9541V5.85762C25.6414 3.31064 24.3556 2.02478 21.7715 2.02478H4.8823C2.29822 2.02478 1 3.29827 1 5.85762V20.9541C1 23.5134 2.29822 24.787 4.8823 24.787ZM4.69683 22.7963C3.59644 22.7963 2.9906 22.2152 2.9906 21.0653V9.40609C2.9906 8.2686 3.59644 7.67513 4.69683 7.67513H21.9323C23.0326 7.67513 23.6509 8.2686 23.6509 9.40609V21.0653C23.6509 22.2152 23.0326 22.7963 21.9323 22.7963H4.69683Z" fill="black" fill-opacity="0.85"/>
<path d="M6.84815 12.2744H19.8303C20.2631 12.2744 20.5969 11.9282 20.5969 11.4955C20.5969 11.0751 20.2631 10.7537 19.8303 10.7537H6.84815C6.39069 10.7537 6.06921 11.0751 6.06921 11.4955C6.06921 11.9282 6.39069 12.2744 6.84815 12.2744ZM6.84815 15.996H19.8303C20.2631 15.996 20.5969 15.6746 20.5969 15.2541C20.5969 14.8091 20.2631 14.4752 19.8303 14.4752H6.84815C6.39069 14.4752 6.06921 14.8091 6.06921 15.2541C6.06921 15.6746 6.39069 15.996 6.84815 15.996ZM6.84815 19.7176H15.0949C15.5277 19.7176 15.8616 19.3961 15.8616 18.9758C15.8616 18.543 15.5277 18.1968 15.0949 18.1968H6.84815C6.39069 18.1968 6.06921 18.543 6.06921 18.9758C6.06921 19.3961 6.39069 19.7176 6.84815 19.7176Z" fill="black" fill-opacity="0.85"/>
</g>
<defs>
<clipPath id="clip0_2040_58">
<rect width="25" height="22.7869" fill="white" transform="translate(1 2)"/>
</clipPath>
</defs>
</svg>
