<svg width="27" height="27" viewBox="0 0 27 27" fill="none" xmlns="http://www.w3.org/2000/svg">
<g clip-path="url(#clip0_2040_57)">
<path d="M2.72119 18.4039C2.72119 18.7884 2.93363 19.0008 3.30793 19.0008H23.4087C23.7729 19.0008 23.9954 18.7884 23.9954 18.4039V8.30804C23.9954 7.93374 23.7729 7.71118 23.4087 7.71118H3.30793C2.93363 7.71118 2.72119 7.93374 2.72119 8.30804V18.4039ZM3.74292 17.7464V8.96559C3.74292 8.81384 3.81373 8.73291 3.96548 8.73291H22.741C22.8928 8.73291 22.9737 8.81384 22.9737 8.96559V17.7464C22.9737 17.8982 22.8928 17.979 22.741 17.979H3.96548C3.81373 17.979 3.74292 17.8982 3.74292 17.7464ZM13.3128 19.0008C15.4979 19.0008 17.2379 16.8056 17.2379 13.3459C17.2379 9.89627 15.4979 7.71118 13.3128 7.71118C11.1884 7.71118 9.47878 9.89627 9.47878 13.3459C9.47878 16.8056 11.1884 19.0008 13.3128 19.0008ZM13.3128 17.8071C11.8763 17.8071 10.6522 16.0975 10.6522 13.3459C10.6522 10.6044 11.8763 8.90489 13.3128 8.90489C14.81 8.90489 16.0745 10.6044 16.0745 13.3459C16.0745 16.0975 14.81 17.8071 13.3128 17.8071Z" fill="#19B200"/>
<path d="M0 20.9127C0 21.3983 0.323716 21.722 0.809291 21.722H25.9074C26.393 21.722 26.7066 21.3983 26.7066 20.9127V5.79917C26.7066 5.3136 26.393 5 25.9074 5H0.809291C0.323716 5 0 5.3136 0 5.79917V20.9127ZM1.6287 19.7999V6.92207C1.6287 6.69951 1.70963 6.6287 1.92207 6.6287H24.7845C25.0071 6.6287 25.0779 6.69951 25.0779 6.92207V19.7999C25.0779 20.0123 25.0071 20.0933 24.7845 20.0933H1.92207C1.70963 20.0933 1.6287 20.0123 1.6287 19.7999Z" fill="#19B200"/>
</g>
<defs>
<clipPath id="clip0_2040_57">
<rect width="27" height="16.722" fill="white" transform="translate(0 5)"/>
</clipPath>
</defs>
</svg>
