<svg width="27" height="27" viewBox="0 0 27 27" fill="none" xmlns="http://www.w3.org/2000/svg">
<g clip-path="url(#clip0_1996_850)">
<path d="M25.4222 12.7883C25.4222 18.1508 20.2751 22.5658 12.5112 22.5658C12.3712 22.5658 12.2312 22.5551 12.0912 22.5443C11.9404 22.5443 11.7897 22.5981 11.6066 22.7273C9.77607 24.041 6.55639 25.4517 5.2642 25.4517C4.43505 25.4517 4.19815 24.7733 4.61811 24.2349C5.0273 23.6964 6.10412 22.5119 6.70714 21.5213C6.79328 21.3598 6.73944 21.1982 6.57792 21.1121C3.12134 19.2599 1 16.2341 1 12.7883C1 7.37188 6.42716 3 13.2111 3C19.9951 3 25.4222 7.37188 25.4222 12.7883ZM16.7862 12.8852C16.7862 13.7789 17.5076 14.5004 18.4014 14.5004C19.2736 14.5004 20.0166 13.7789 20.0166 12.8852C20.0166 11.9915 19.2736 11.27 18.4014 11.27C17.5076 11.27 16.7862 11.9915 16.7862 12.8852ZM11.5959 12.8852C11.5959 13.7789 12.3174 14.5004 13.2111 14.5004C14.1049 14.5004 14.8263 13.7789 14.8263 12.8852C14.8263 11.9915 14.1049 11.27 13.2111 11.27C12.3174 11.27 11.5959 11.9915 11.5959 12.8852ZM6.4164 12.8852C6.4164 13.7789 7.14863 14.5004 8.03162 14.5004C8.91462 14.5004 9.63609 13.7789 9.63609 12.8852C9.63609 11.9915 8.90385 11.27 8.03162 11.27C7.14863 11.27 6.4164 11.9915 6.4164 12.8852Z" fill="black"/>
</g>
<defs>
<clipPath id="clip0_1996_850">
<rect width="24.7346" height="22.4517" fill="white" transform="translate(1 3)"/>
</clipPath>
</defs>
</svg>
