<svg width="27" height="27" viewBox="0 0 27 27" fill="none" xmlns="http://www.w3.org/2000/svg">
<g clip-path="url(#clip0_1996_860)">
<g clip-path="url(#clip1_1996_860)">
<path d="M13.3108 26.6216C20.5926 26.6216 26.6216 20.5796 26.6216 13.3108C26.6216 6.02901 20.5796 0 13.2978 0C6.02901 0 0 6.02901 0 13.3108C0 20.5796 6.04207 26.6216 13.3108 26.6216ZM13.3108 24.4031C7.15129 24.4031 2.23151 19.4703 2.23151 13.3108C2.23151 7.15129 7.13825 2.21847 13.2978 2.21847C19.4573 2.21847 24.4031 7.15129 24.4031 13.3108C24.4031 19.4703 19.4703 24.4031 13.3108 24.4031Z" fill="black"/>
<path d="M11.8753 19.5094C12.3059 19.5094 12.6713 19.3006 12.9324 18.8961L18.8962 9.51327C19.0397 9.25228 19.2094 8.96518 19.2094 8.67809C19.2094 8.09084 18.6874 7.7124 18.1393 7.7124C17.813 7.7124 17.4867 7.9212 17.2388 8.29964L11.8232 16.9909L9.25233 13.6631C8.93913 13.2455 8.65203 13.1411 8.28663 13.1411C7.72549 13.1411 7.2818 13.5978 7.2818 14.172C7.2818 14.4592 7.39925 14.7332 7.58195 14.9812L10.7661 18.8961C11.0924 19.3267 11.4447 19.5094 11.8753 19.5094Z" fill="black"/>
</g>
</g>
<defs>
<clipPath id="clip0_1996_860">
<rect width="27" height="27" fill="white"/>
</clipPath>
<clipPath id="clip1_1996_860">
<rect width="27" height="26.6347" fill="white"/>
</clipPath>
</defs>
</svg>
