<svg width="27" height="27" viewBox="0 0 27 27" fill="none" xmlns="http://www.w3.org/2000/svg">
<g clip-path="url(#clip0_1996_860)">
<path d="M13.4512 25.9023C20.2627 25.9023 25.9023 20.2505 25.9023 13.4512C25.9023 6.63965 20.2505 1 13.439 1C6.63965 1 1 6.63965 1 13.4512C1 20.2505 6.65186 25.9023 13.4512 25.9023ZM13.4512 23.8271C7.68945 23.8271 3.0874 19.2129 3.0874 13.4512C3.0874 7.68945 7.67725 3.0752 13.439 3.0752C19.2007 3.0752 23.8271 7.68945 23.8271 13.4512C23.8271 19.2129 19.2129 23.8271 13.4512 23.8271Z" fill="black"/>
<path d="M12.1084 19.2495C12.5112 19.2495 12.853 19.0542 13.0972 18.6758L18.6758 9.89892C18.8101 9.65478 18.9688 9.38622 18.9688 9.11767C18.9688 8.56835 18.4805 8.21436 17.9678 8.21436C17.6626 8.21436 17.3574 8.40967 17.1255 8.76367L12.0596 16.8936L9.65479 13.7808C9.36182 13.3901 9.09326 13.2925 8.75146 13.2925C8.22656 13.2925 7.81152 13.7197 7.81152 14.2568C7.81152 14.5254 7.92139 14.7817 8.09229 15.0137L11.0708 18.6758C11.376 19.0786 11.7056 19.2495 12.1084 19.2495Z" fill="black"/>
</g>
<defs>
<clipPath id="clip0_1996_860">
<rect width="25.2563" height="24.9146" fill="white" transform="translate(1 1)"/>
</clipPath>
</defs>
</svg>
