<svg width="27" height="27" viewBox="0 0 27 27" fill="none" xmlns="http://www.w3.org/2000/svg">
<g clip-path="url(#clip0_2037_45)">
<g clip-path="url(#clip1_2037_45)">
<path d="M13.4934 26.9867C20.875 26.9867 26.9867 20.8618 26.9867 13.4934C26.9867 6.1117 20.8618 0 13.4802 0C6.1117 0 0 6.1117 0 13.4934C0 20.8618 6.12493 26.9867 13.4934 26.9867ZM13.4934 24.7378C7.24937 24.7378 2.26212 19.7374 2.26212 13.4934C2.26212 7.24937 7.23615 2.2489 13.4802 2.2489C19.7241 2.2489 24.7378 7.24937 24.7378 13.4934C24.7378 19.7374 19.7374 24.7378 13.4934 24.7378Z" fill="black"/>
<path d="M7.95039 20.1606L15.5437 16.4565C15.967 16.2449 16.258 15.9539 16.4698 15.5438L20.1605 7.96371C20.5838 7.06415 19.9357 6.36303 19.0096 6.82604L11.4428 10.5169C11.0327 10.7021 10.7549 10.9798 10.53 11.4297L6.81271 19.023C6.38939 19.8961 7.07728 20.5839 7.95039 20.1606ZM13.4933 15.1204C12.5937 15.1204 11.8793 14.3928 11.8793 13.5066C11.8793 12.607 12.5937 11.8794 13.4933 11.8794C14.3927 11.8794 15.1203 12.607 15.1203 13.5066C15.1203 14.3928 14.3927 15.1204 13.4933 15.1204Z" fill="black"/>
</g>
</g>
<defs>
<clipPath id="clip0_2037_45">
<rect width="27" height="27" fill="white"/>
</clipPath>
<clipPath id="clip1_2037_45">
<rect width="27.3703" height="27" fill="white"/>
</clipPath>
</defs>
</svg>
