<svg width="27" height="27" viewBox="0 0 27 27" fill="none" xmlns="http://www.w3.org/2000/svg">
<g clip-path="url(#clip0_1996_822)">
<path d="M7.7439 24.9146H18.9024C20.6951 24.9146 21.6463 23.939 21.6463 22.0122V13.6098C21.6463 11.6952 20.6951 10.7195 18.9024 10.7195H7.7439C5.95122 10.7195 5 11.6952 5 13.6098V22.0122C5 23.939 5.95122 24.9146 7.7439 24.9146ZM7.80488 23.0731C7.28048 23.0731 6.97561 22.7439 6.97561 22.1464V13.4756C6.97561 12.878 7.28048 12.561 7.80488 12.561H18.8415C19.3781 12.561 19.6708 12.878 19.6708 13.4756V22.1464C19.6708 22.7439 19.3781 23.0731 18.8415 23.0731H7.80488ZM7.13415 11.6585H9.07317V7.54879C9.07317 4.46342 11.0366 2.84146 13.3171 2.84146C15.5976 2.84146 17.5854 4.46342 17.5854 7.54879V11.6585H19.5122V7.80488C19.5122 3.21951 16.5122 1 13.3171 1C10.1341 1 7.13415 3.21951 7.13415 7.80488V11.6585Z" fill="black"/>
</g>
<defs>
<clipPath id="clip0_1996_822">
<rect width="17" height="24.5488" fill="white" transform="translate(5 1)"/>
</clipPath>
</defs>
</svg>
