<svg width="26" height="25" viewBox="0 0 26 25" fill="none" xmlns="http://www.w3.org/2000/svg">
<g clip-path="url(#clip0_1996_868)">
<path d="M12.4268 2.09961C13.0005 2.09961 13.4766 1.62354 13.4766 1.0498C13.4766 0.476074 13.0005 0 12.4268 0C11.853 0 11.377 0.476074 11.377 1.0498C11.377 1.62354 11.853 2.09961 12.4268 2.09961ZM15.918 2.67334C16.4917 2.67334 16.9678 2.19727 16.9678 1.62354C16.9678 1.0498 16.4917 0.57373 15.918 0.57373C15.3442 0.57373 14.8682 1.0498 14.8682 1.62354C14.8682 2.19727 15.3442 2.67334 15.918 2.67334ZM19.0918 4.27246C19.6655 4.27246 20.1416 3.79639 20.1416 3.22266C20.1416 2.64893 19.6655 2.17285 19.0918 2.17285C18.5181 2.17285 18.042 2.64893 18.042 3.22266C18.042 3.79639 18.5181 4.27246 19.0918 4.27246ZM21.5942 6.78711C22.168 6.78711 22.644 6.31104 22.644 5.7373C22.644 5.16357 22.168 4.6875 21.5942 4.6875C21.0205 4.6875 20.5444 5.16357 20.5444 5.7373C20.5444 6.31104 21.0205 6.78711 21.5942 6.78711ZM23.1934 9.91211C23.7671 9.91211 24.2432 9.43604 24.2432 8.8623C24.2432 8.28857 23.7671 7.8125 23.1934 7.8125C22.6196 7.8125 22.1436 8.28857 22.1436 8.8623C22.1436 9.43604 22.6196 9.91211 23.1934 9.91211ZM23.7915 13.4155C24.3652 13.4155 24.8413 12.9395 24.8413 12.3657C24.8413 11.792 24.3652 11.3159 23.7915 11.3159C23.2178 11.3159 22.7417 11.792 22.7417 12.3657C22.7417 12.9395 23.2178 13.4155 23.7915 13.4155ZM23.1934 16.9189C23.7671 16.9189 24.2432 16.4429 24.2432 15.8691C24.2432 15.2954 23.7671 14.8193 23.1934 14.8193C22.6196 14.8193 22.1436 15.2954 22.1436 15.8691C22.1436 16.4429 22.6196 16.9189 23.1934 16.9189ZM21.5942 20.0562C22.168 20.0562 22.644 19.5801 22.644 19.0063C22.644 18.4326 22.168 17.9565 21.5942 17.9565C21.0205 17.9565 20.5444 18.4326 20.5444 19.0063C20.5444 19.5801 21.0205 20.0562 21.5942 20.0562ZM19.0918 22.5586C19.6655 22.5586 20.1416 22.0825 20.1416 21.5088C20.1416 20.9351 19.6655 20.459 19.0918 20.459C18.5181 20.459 18.042 20.9351 18.042 21.5088C18.042 22.0825 18.5181 22.5586 19.0918 22.5586ZM15.918 24.1577C16.4917 24.1577 16.9678 23.6816 16.9678 23.1079C16.9678 22.5342 16.4917 22.0581 15.918 22.0581C15.3442 22.0581 14.8682 22.5342 14.8682 23.1079C14.8682 23.6816 15.3442 24.1577 15.918 24.1577ZM12.4268 24.7314C13.0005 24.7314 13.4766 24.2554 13.4766 23.6816C13.4766 23.1079 13.0005 22.6318 12.4268 22.6318C11.853 22.6318 11.377 23.1079 11.377 23.6816C11.377 24.2554 11.853 24.7314 12.4268 24.7314ZM8.93555 24.1577C9.50928 24.1577 9.98535 23.6816 9.98535 23.1079C9.98535 22.5342 9.50928 22.0581 8.93555 22.0581C8.34961 22.0581 7.88574 22.5342 7.88574 23.1079C7.88574 23.6816 8.34961 24.1577 8.93555 24.1577ZM5.76172 22.5586C6.33545 22.5586 6.81152 22.0825 6.81152 21.5088C6.81152 20.9351 6.33545 20.459 5.76172 20.459C5.17578 20.459 4.71191 20.9351 4.71191 21.5088C4.71191 22.0825 5.17578 22.5586 5.76172 22.5586ZM3.24707 20.0562C3.8208 20.0562 4.29688 19.5801 4.29688 19.0063C4.29688 18.4326 3.8208 17.9565 3.24707 17.9565C2.67334 17.9565 2.19727 18.4326 2.19727 19.0063C2.19727 19.5801 2.67334 20.0562 3.24707 20.0562ZM1.64795 16.9189C2.22168 16.9189 2.69775 16.4429 2.69775 15.8691C2.69775 15.2954 2.22168 14.8193 1.64795 14.8193C1.07422 14.8193 0.598145 15.2954 0.598145 15.8691C0.598145 16.4429 1.07422 16.9189 1.64795 16.9189ZM1.0498 13.4155C1.62354 13.4155 2.09961 12.9395 2.09961 12.3657C2.09961 11.792 1.62354 11.3159 1.0498 11.3159C0.476074 11.3159 0 11.792 0 12.3657C0 12.9395 0.476074 13.4155 1.0498 13.4155ZM1.64795 9.91211C2.22168 9.91211 2.69775 9.43604 2.69775 8.8623C2.69775 8.28857 2.22168 7.8125 1.64795 7.8125C1.07422 7.8125 0.598145 8.28857 0.598145 8.8623C0.598145 9.43604 1.07422 9.91211 1.64795 9.91211ZM3.24707 6.78711C3.8208 6.78711 4.29688 6.31104 4.29688 5.7373C4.29688 5.16357 3.8208 4.6875 3.24707 4.6875C2.67334 4.6875 2.19727 5.16357 2.19727 5.7373C2.19727 6.31104 2.67334 6.78711 3.24707 6.78711ZM5.76172 4.27246C6.33545 4.27246 6.81152 3.79639 6.81152 3.22266C6.81152 2.64893 6.33545 2.17285 5.76172 2.17285C5.17578 2.17285 4.71191 2.64893 4.71191 3.22266C4.71191 3.79639 5.17578 4.27246 5.76172 4.27246ZM8.93555 2.67334C9.50928 2.67334 9.98535 2.19727 9.98535 1.62354C9.98535 1.0498 9.50928 0.57373 8.93555 0.57373C8.34961 0.57373 7.88574 1.0498 7.88574 1.62354C7.88574 2.19727 8.34961 2.67334 8.93555 2.67334Z" fill="black"/>
<path d="M8.00781 17.1753C8.00781 18.0908 8.41064 18.5181 9.26514 18.5181H15.5884C16.4307 18.5181 16.8335 18.0908 16.8335 17.1753V12.3169C16.8335 11.4624 16.4795 11.0474 15.7593 10.9985V9.5459C15.7593 7.2998 14.4165 5.79834 12.4268 5.79834C10.437 5.79834 9.09424 7.2998 9.09424 9.5459V10.9985C8.36182 11.0474 8.00781 11.4624 8.00781 12.3169V17.1753ZM10.3638 10.9863V9.41162C10.3638 7.9834 11.1816 7.03125 12.4268 7.03125C13.6597 7.03125 14.4897 7.9834 14.4897 9.41162V10.9863H10.3638Z" fill="black"/>
</g>
<defs>
<clipPath id="clip0_1996_868">
<rect width="25.1953" height="24.7437" fill="white"/>
</clipPath>
</defs>
</svg>
