<svg width="27" height="27" viewBox="0 0 27 27" fill="none" xmlns="http://www.w3.org/2000/svg">
<g clip-path="url(#clip0_1996_821)">
<g clip-path="url(#clip1_1996_821)">
<path d="M3.53603 23.0724H23.9752C25.9909 23.0724 27.1734 21.9225 27.1734 19.6448V7.4385C27.1734 5.16086 25.9797 4.01099 23.6374 4.01099H3.1982C1.18243 4.01099 0 5.16086 0 7.4385V19.6448C0 21.9225 1.1937 23.0724 3.53603 23.0724ZM3.46847 21.3808C2.3536 21.3808 1.72298 20.7727 1.72298 19.6338V7.42744C1.72298 6.29968 2.3536 5.70263 3.46847 5.70263H23.6937C24.8085 5.70263 25.4504 6.29968 25.4504 7.4385V19.6448C25.4504 20.7727 24.8085 21.3808 23.6937 21.3808H3.46847ZM13.5811 16.4495C14.3018 16.4495 15 16.1841 15.6419 15.6093L26.2387 6.2444L25.0676 5.08347L14.6622 14.2935C14.313 14.6031 13.9527 14.7468 13.5811 14.7468C13.2094 14.7468 12.8491 14.6031 12.5 14.2935L2.09459 5.08347L0.923426 6.2444L11.5203 15.6093C12.1622 16.1841 12.8603 16.4495 13.5811 16.4495ZM2.26351 21.6571L10.259 13.796L9.08783 12.6461L1.09234 20.4962L2.26351 21.6571ZM24.9212 21.6682L26.0923 20.5073L18.0856 12.6461L16.9032 13.796L24.9212 21.6682Z" fill="black"/>
</g>
</g>
<defs>
<clipPath id="clip0_1996_821">
<rect width="27" height="27" fill="white"/>
</clipPath>
<clipPath id="clip1_1996_821">
<rect width="27.5" height="19.0724" fill="white" transform="translate(0 4)"/>
</clipPath>
</defs>
</svg>
