<svg width="27" height="27" viewBox="0 0 27 27" fill="none" xmlns="http://www.w3.org/2000/svg">
<g clip-path="url(#clip0_2064_84)">
<path fill-rule="evenodd" clip-rule="evenodd" d="M20 13.5C20 13.9677 19.6213 14.3478 19.1521 14.3478H14.3472V19.1522C14.3472 19.6199 13.9685 20 13.4993 20C13.0301 20 12.6528 19.6199 12.6528 19.1522V14.3478H7.8465C7.37732 14.3478 7 13.9677 7 13.5C7 13.0323 7.37732 12.6522 7.8465 12.6522H12.6528V7.84783C12.6528 7.38011 13.0301 7 13.4993 7C13.9685 7 14.3472 7.38011 14.3472 7.84783V12.6522H19.1521C19.6213 12.6522 20 13.0323 20 13.5Z" fill="#626262"/>
</g>
<defs>
<clipPath id="clip0_2064_84">
<rect width="13" height="13" fill="white" transform="translate(7 7)"/>
</clipPath>
</defs>
</svg>
