<svg width="27" height="27" viewBox="0 0 27 27" fill="none" xmlns="http://www.w3.org/2000/svg">
<g clip-path="url(#clip0_1996_856)">
<g clip-path="url(#clip1_1996_856)">
<path d="M13.6339 25.3383C13.9312 25.3383 14.2286 25.3259 14.526 25.3012L15.2198 26.602C15.3685 26.8994 15.6658 27.048 16.0127 26.9861C16.3472 26.9242 16.5826 26.6763 16.6198 26.3294L16.8428 24.8922C17.4127 24.7435 17.9702 24.5329 18.5154 24.2976L19.5809 25.2392C19.8287 25.4621 20.1756 25.5365 20.4978 25.3507C20.7827 25.1896 20.919 24.8675 20.8323 24.5206L20.5473 23.1205C21.0181 22.7736 21.4889 22.3896 21.9102 21.9807L23.2234 22.5259C23.5704 22.6622 23.8925 22.5754 24.1402 22.2904C24.3385 22.0426 24.3757 21.6957 24.1899 21.3983L23.434 20.1718C23.7562 19.6887 24.0536 19.1683 24.3261 18.6231L25.7634 18.6727C26.0854 18.6974 26.4076 18.524 26.5067 18.1771C26.6182 17.8549 26.5067 17.5328 26.2465 17.3222L25.1315 16.4301C25.2801 15.8602 25.3792 15.2656 25.4288 14.646L26.7792 14.2124C27.1262 14.1009 27.3492 13.8408 27.3492 13.4939C27.3492 13.1346 27.1262 12.8867 26.7792 12.7752L25.4288 12.3416C25.3792 11.7221 25.2801 11.1398 25.1315 10.5575L26.2465 9.65304C26.4943 9.4548 26.6182 9.14506 26.5067 8.82293C26.4076 8.47602 26.0854 8.30257 25.7634 8.32734L24.3261 8.36452C24.0536 7.81937 23.7562 7.3114 23.434 6.80342L24.1899 5.57685C24.3633 5.30428 24.3385 4.95737 24.1402 4.70958C23.8925 4.41222 23.5704 4.33789 23.2358 4.47418L21.9102 4.99453C21.4889 4.61045 21.0181 4.21399 20.5473 3.86708L20.8323 2.47945C20.9066 2.10775 20.7827 1.79802 20.4978 1.64934C20.1756 1.4635 19.8287 1.51306 19.5809 1.74846L18.5154 2.67768C17.9702 2.45466 17.4127 2.25643 16.8428 2.09537L16.6198 0.670561C16.5826 0.323652 16.3472 0.0758593 16.0127 0.0139111C15.6658 -0.0480369 15.356 0.100639 15.2198 0.3856L14.526 1.68651C14.2286 1.66173 13.9312 1.64934 13.6339 1.64934C13.3242 1.64934 13.0392 1.66173 12.7295 1.68651L12.048 0.3856C11.8994 0.100639 11.602 -0.0480369 11.2551 0.0139111C10.9205 0.0758593 10.7099 0.323652 10.648 0.670561L10.4249 2.08298C9.85505 2.25643 9.29752 2.45466 8.73999 2.67768L7.68687 1.76085C7.42669 1.51306 7.09217 1.4635 6.75765 1.64934C6.48507 1.79802 6.36118 2.10775 6.43551 2.47945L6.70809 3.86708C6.24968 4.21399 5.76647 4.61045 5.34524 4.99453L4.03193 4.47418C3.69741 4.33789 3.37529 4.41222 3.12749 4.70958C2.92925 4.95737 2.89208 5.30428 3.06554 5.57685L3.8337 6.80342C3.51156 7.3114 3.2266 7.81937 2.94165 8.36452L1.50446 8.32734C1.16994 8.30257 0.860191 8.47602 0.761074 8.82293C0.649568 9.14506 0.748685 9.4548 1.02125 9.65304L2.13632 10.5575C1.98765 11.1398 1.88853 11.7221 1.85136 12.3416L0.476113 12.7752C0.129203 12.8743 -0.0566406 13.1346 -0.0566406 13.4939C-0.0566406 13.8532 0.129203 14.1009 0.476113 14.2124L1.85136 14.646C1.88853 15.2656 1.98765 15.8602 2.13632 16.4301L1.02125 17.3222C0.748685 17.5328 0.649568 17.8549 0.761074 18.1771C0.860191 18.524 1.16994 18.6974 1.50446 18.6727L2.94165 18.6231C3.2266 19.1683 3.51156 19.6887 3.8337 20.1718L3.07793 21.3983C2.90448 21.6957 2.91687 22.0426 3.12749 22.2904C3.37529 22.5754 3.69741 22.6622 4.04433 22.5259L5.34524 21.9807C5.76647 22.3896 6.24968 22.7736 6.70809 23.1205L6.43551 24.5206C6.37357 24.8675 6.48507 25.1896 6.75765 25.3507C7.09217 25.5365 7.42669 25.4621 7.68687 25.2392L8.73999 24.2976C9.29752 24.5329 9.85505 24.7435 10.4249 24.9046L10.648 26.3294C10.7099 26.6763 10.9205 26.9242 11.2551 26.9861C11.602 27.048 11.8994 26.8994 12.048 26.602L12.7295 25.3012C13.0268 25.3259 13.3242 25.3383 13.6339 25.3383ZM13.6339 23.3435C8.1329 23.3435 3.92043 18.9824 3.92043 13.5062C3.92043 8.01761 8.1329 3.64407 13.6339 3.64407C19.1349 3.64407 23.3721 8.01761 23.3721 13.5062C23.3721 18.9824 19.1349 23.3435 13.6339 23.3435ZM11.478 11.5982L12.9401 10.669L8.80194 3.56973L7.27801 4.42462L11.478 11.5982ZM16.3967 14.3363H24.6359V12.6266H16.3967V14.3363ZM12.9649 16.3558L11.5153 15.4142L7.15411 22.5259L8.66565 23.4179L12.9649 16.3558ZM13.6092 16.7523C15.4056 16.7523 16.8552 15.3151 16.8552 13.5186C16.8552 11.7221 15.4056 10.2725 13.6092 10.2725C11.8126 10.2725 10.3754 11.7221 10.3754 13.5186C10.3754 15.3151 11.8126 16.7523 13.6092 16.7523ZM13.6092 14.8939C12.8285 14.8939 12.2215 14.3115 12.2215 13.5186C12.2215 12.7256 12.8285 12.1186 13.6092 12.1186C14.402 12.1186 15.0092 12.7256 15.0092 13.5186C15.0092 14.3115 14.402 14.8939 13.6092 14.8939Z" fill="black"/>
</g>
</g>
<defs>
<clipPath id="clip0_1996_856">
<rect width="27" height="27" fill="white"/>
</clipPath>
<clipPath id="clip1_1996_856">
<rect width="27.7652" height="27" fill="white" transform="translate(-0.0566406)"/>
</clipPath>
</defs>
</svg>
